TITLE ""
FILE "Disc4Track67.mp3" MP3
  TRACK 01 AUDIO
    TITLE "Disc4Track67_01"
    INDEX 01 00:00:00
  TRACK 02 AUDIO
    TITLE "Disc4Track67_02"
    INDEX 01 00:01:10
  TRACK 03 AUDIO
    TITLE "Disc4Track67_03"
    INDEX 01 00:03:56
  TRACK 04 AUDIO
    TITLE "Disc4Track67_04"
    INDEX 01 00:04:73
  TRACK 05 AUDIO
    TITLE "Disc4Track67_05"
    INDEX 01 00:10:26
  TRACK 06 AUDIO
    TITLE "Disc4Track67_06"
    INDEX 01 00:10:58
  TRACK 07 AUDIO
    TITLE "Disc4Track67_07"
    INDEX 01 00:11:63
  TRACK 08 AUDIO
    TITLE "Disc4Track67_08"
    INDEX 01 00:14:08
  TRACK 09 AUDIO
    TITLE "Disc4Track67_09"
    INDEX 01 00:15:14
  TRACK 10 AUDIO
    TITLE "Disc4Track67_10"
    INDEX 01 00:17:54
  TRACK 11 AUDIO
    TITLE "Disc4Track67_11"
    INDEX 01 00:18:12
  TRACK 12 AUDIO
    TITLE "Disc4Track67_12"
    INDEX 01 00:19:15
  TRACK 13 AUDIO
    TITLE "Disc4Track67_13"
    INDEX 01 00:20:37
  TRACK 14 AUDIO
    TITLE "Disc4Track67_14"
    INDEX 01 00:21:38
  TRACK 15 AUDIO
    TITLE "Disc4Track67_15"
    INDEX 01 00:23:72
  TRACK 16 AUDIO
    TITLE "Disc4Track67_16"
    INDEX 01 00:24:28
  TRACK 17 AUDIO
    TITLE "Disc4Track67_17"
    INDEX 01 00:25:46
  TRACK 18 AUDIO
    TITLE "Disc4Track67_18"
    INDEX 01 00:28:05
  TRACK 19 AUDIO
    TITLE "Disc4Track67_19"
    INDEX 01 00:29:18
  TRACK 20 AUDIO
    TITLE "Disc4Track67_20"
    INDEX 01 00:32:01
  TRACK 21 AUDIO
    TITLE "Disc4Track67_21"
    INDEX 01 00:32:32
  TRACK 22 AUDIO
    TITLE "Disc4Track67_22"
    INDEX 01 00:33:35
  TRACK 23 AUDIO
    TITLE "Disc4Track67_23"
    INDEX 01 00:35:15
  TRACK 24 AUDIO
    TITLE "Disc4Track67_24"
    INDEX 01 00:36:16
  TRACK 25 AUDIO
    TITLE "Disc4Track67_25"
    INDEX 01 00:38:05
  TRACK 26 AUDIO
    TITLE "Disc4Track67_26"
    INDEX 01 00:38:32
  TRACK 27 AUDIO
    TITLE "Disc4Track67_27"
    INDEX 01 00:39:51
  TRACK 28 AUDIO
    TITLE "Disc4Track67_28"
    INDEX 01 00:41:66
  TRACK 29 AUDIO
    TITLE "Disc4Track67_29"
    INDEX 01 00:43:06
  TRACK 30 AUDIO
    TITLE "Disc4Track67_30"
    INDEX 01 00:46:55
  TRACK 31 AUDIO
    TITLE "Disc4Track67_31"
    INDEX 01 00:47:12
  TRACK 32 AUDIO
    TITLE "Disc4Track67_32"
    INDEX 01 00:48:25
  TRACK 33 AUDIO
    TITLE "Disc4Track67_33"
    INDEX 01 00:50:22
  TRACK 34 AUDIO
    TITLE "Disc4Track67_34"
    INDEX 01 00:51:35
  TRACK 35 AUDIO
    TITLE "Disc4Track67_35"
    INDEX 01 00:53:24
  TRACK 36 AUDIO
    TITLE "Disc4Track67_36"
    INDEX 01 00:53:57
  TRACK 37 AUDIO
    TITLE "Disc4Track67_37"
    INDEX 01 00:54:71
  TRACK 38 AUDIO
    TITLE "Disc4Track67_38"
    INDEX 01 00:57:46
  TRACK 39 AUDIO
    TITLE "Disc4Track67_39"
    INDEX 01 00:58:59
  TRACK 40 AUDIO
    TITLE "Disc4Track67_40"
    INDEX 01 01:03:44
  TRACK 41 AUDIO
    TITLE "Disc4Track67_41"
    INDEX 01 01:04:01
  TRACK 42 AUDIO
    TITLE "Disc4Track67_42"
    INDEX 01 01:05:12
  TRACK 43 AUDIO
    TITLE "Disc4Track67_43"
    INDEX 01 01:07:34
  TRACK 44 AUDIO
    TITLE "Disc4Track67_44"
    INDEX 01 01:08:43
  TRACK 45 AUDIO
    TITLE "Disc4Track67_45"
    INDEX 01 01:12:24
